# xmcd
#
# Track frame offsets:
#	210
#	13735
#	27294
#	40825
#	54144
#	67372
#	80756
#	95109
#	109317
#	123107
#	136705
#	150649
#	165423
#	178824
#	191839
#	205241
#	218865
#	232964
#	245942
#	261348
#	273625
#	286435
#
# Disc length: 3986 seconds
#
# Revision: 1
# Processed by: cddbd v1.4PL0 Copyright (c) Steve Scherf et al.
# Submitted via: EasyCDDAExtractor 5.0.6
#
DISCID=4d0f9016
DTITLE=Walter Smith and Friends - Volume 3 (February 1931 - December 1936): I'll
DTITLE=Roll in My Sweet Baby's Arms
DYEAR=2002
DGENRE=country
TTITLE0=Mid The Green Fields of Virginia
TTITLE1=The Cabin With the Roses
TTITLE2=Whisper Softly Mother's Dying
TTITLE3=Little Bessie
TTITLE4=If You'll Be Mine
TTITLE5=It's Awful What Whiskey Will Do
TTITLE6=It'S Hard To Love And Can't Be Loved
TTITLE7=Swinging Down The Lane (I'd Rather Be Rosy Nell)
TTITLE8=It Won't Hurt No More
TTITLE9=A Lazy Farmer Boy
TTITLE10=What Sugar Head Licker Will Do
TTITLE11=Bill Morgan And His Gal
TTITLE12=I'll Roll In My Sweet Baby's Arms
TTITLE13=She's a Darn Good Gal
TTITLE14=You Give Me Your Love (And I'll Give You Mine )
TTITLE15=Homestead In The Wild Wood
TTITLE16=Lying Daddy Blues
TTITLE17=Mama Cat Blues
TTITLE18=Mississippi Freight Train Blues
TTITLE19=Ten I Served And Ten To Serve
TTITLE20=I'm Not Angry With You Darling
TTITLE21=Mama You're A Mess
EXTD=
EXTT0=
EXTT1=
EXTT2=
EXTT3=
EXTT4=
EXTT5=
EXTT6=
EXTT7=
EXTT8=
EXTT9=
EXTT10=
EXTT11=
EXTT12=
EXTT13=
EXTT14=
EXTT15=
EXTT16=
EXTT17=
EXTT18=
EXTT19=
EXTT20=
EXTT21=
PLAYORDER=
